<?xml version="1.0" ?><!DOCTYPE svg  PUBLIC '-//W3C//DTD SVG 1.1//EN'  'http://www.w3.org/Graphics/SVG/1.1/DTD/svg11.dtd'><svg enable-background="new 0 0 128 128" height="128px" id="Layer_1" version="1.1" viewBox="0 0 128 128" width="128px" xml:space="preserve" xmlns="http://www.w3.org/2000/svg" xmlns:xlink="http://www.w3.org/1999/xlink"><circle cx="64" cy="64" fill="#686868" r="64"/><path d="M91.39,44.762c-0.777-3.659-1.681-7.958-2.696-13.145c-0.11-0.54-0.601-1.16-1.11-1.38  c-1.151-0.482-2.668-1.091-3.771-1.509c-0.748,0.635-1.384,1.156-2.709,1.041c-2.171-0.188-4.184-1.294-6.33-1.298  c-2.319-0.003-4.618,0.078-6.935-0.044c-3.742-0.196-8.409-0.89-11.886,0.847c-2.838,1.417-5.497-0.107-6.64-2.286  c-0.234,0.071-0.465,0.135-0.701,0.209c-2.6,0.819-5.32,1.83-8.19,3.04c-0.51,0.22-1.01,0.84-1.12,1.38  c-0.956,4.888-1.812,8.98-2.56,12.5c0.894,1.017,1.308,2.446,0.771,4.169c-1.948,6.248-2.17,12.855-3.915,19.124  c0.013,0.075,0.021,0.151,0.034,0.227c0.05,0.311,0.11,0.62,0.19,0.931v0.01c0.022,0.104,0.055,0.21,0.079,0.316  c2.099-1.879,5.434-2.139,6.826,1.123c1.992,4.665,2.875,10.086,5.39,14.482c2.749,4.807,7.813,6.192,11.26,10.26  c1.854,2.188,1.354,4.845-0.108,6.558c0.152,0.145,0.308,0.291,0.453,0.431c0.273,0.257,0.535,0.503,0.795,0.746  c1.168-0.97,2.771-1.401,4.302-0.953c0.263,0.077,0.53,0.146,0.798,0.206c0.112,0.008,0.299,0.023,0.491,0.038  c1.33-1.866,4.265-2.26,6.16-1.15c0.243,0.143,0.452,0.308,0.654,0.477c0.054-0.053,0.106-0.101,0.16-0.153  c4.354-4.157,9.958-9.944,14.606-16.145c1.18-5.731,0.988-11.698,2.027-17.481c1.015-5.652,2.243-11.359,0.803-17.043  C87.831,47.57,89.371,45.571,91.39,44.762z" fill="#EAD57D"/><path d="M85.253,44.167v41.212c5.229-6.86,9.37-14.29,9.37-20.59c0-5.253-1.221-10.546-3.354-20.622H85.253z" fill="#D6C169"/><path d="M59.613,103.517c0.4,0.36,0.78,0.7,1.14,1.03c0.11,0.101,0.23,0.21,0.34,0.311  c0.13,0.109,0.25,0.22,0.37,0.329c0.36,0.32,0.69,0.61,0.98,0.86c0.84,0.73,2.21,0.74,3.05,0.01c0.96-0.83,2.31-2.029,3.91-3.52  c0.54-0.49,1.1-1.021,1.68-1.58v-36.6l-13.36,37.39C58.394,102.377,59.023,102.967,59.613,103.517z" fill="#D6C169"/><path d="M36.733,44.167c-1.2,5.67-2.12,9.82-2.68,13.31c-0.07,0.391-0.13,0.761-0.18,1.141  c-0.09,0.569-0.16,1.13-0.22,1.68c-0.03,0.26-0.06,0.51-0.08,0.76c-0.09,0.82-0.14,1.61-0.17,2.4c-0.01,0.22-0.02,0.44-0.02,0.67  c-0.01,0.22-0.01,0.44-0.01,0.66c0,0.229,0.01,0.47,0.02,0.7c0.01,0.279,0.03,0.56,0.06,0.84c0.01,0.14,0.03,0.29,0.05,0.439  c0.03,0.29,0.08,0.58,0.13,0.87c0.05,0.311,0.11,0.62,0.19,0.931l8.72-24.4H36.733z" fill="#D6C169"/><path d="M56.914,44.167v56.81c0.28,0.261,0.55,0.521,0.81,0.771l13.36-37.39v-20.19H56.914z" fill="#F0DB83"/><path d="M42.543,44.167l-8.72,24.4v0.01c0.07,0.33,0.15,0.67,0.25,1c0.06,0.26,0.14,0.51,0.22,0.77  c0.19,0.641,0.42,1.28,0.67,1.931c0.08,0.22,0.17,0.43,0.26,0.649c0.09,0.24,0.19,0.471,0.3,0.71c0.11,0.261,0.23,0.521,0.35,0.771  c0.11,0.24,0.22,0.47,0.34,0.71c0.21,0.43,0.43,0.859,0.66,1.29c0.49,0.939,1.03,1.88,1.61,2.81c0.22,0.36,0.44,0.72,0.67,1.07  c1.1,1.72,2.32,3.439,3.6,5.12v-41.24H42.543z" fill="#F0DB83"/><path d="M64.483,24.647c-0.16-0.03-0.32-0.011-0.48-0.011s-0.33-0.02-0.49-0.02c-4.8,0.069-9.62,0.92-14.9,2.58  l-6.07,16.97h0.21v41.24c4.56,5.979,9.95,11.54,14.16,15.569v-56.81h14.17v20.19l12.73-35.62  C76.744,26.057,70.604,24.717,64.483,24.647z" fill="#FFEF97"/><path d="M70.82,34.125c-4.19,1.254-5.207,2.27-6.46,6.461c-1.253-4.191-2.27-5.207-6.46-6.461  c4.19-1.254,5.207-2.27,6.46-6.461C65.613,31.855,66.629,32.871,70.82,34.125z" fill="#F0DB83"/></svg>